<?xml version="1.0" encoding="utf-8"?>
<!-- Generator: Adobe Illustrator 22.0.1, SVG Export Plug-In . SVG Version: 6.00 Build 0)  -->
<svg version="1.1" id="Layer_1" xmlns="http://www.w3.org/2000/svg" xmlns:xlink="http://www.w3.org/1999/xlink" x="0px" y="0px"
	 viewBox="0 0 1022.6 690.7" style="enable-background:new 0 0 1022.6 690.7;" xml:space="preserve">
<style type="text/css">
	.st0{fill:#FFFFFF;}
	.st1{fill:#DBDBDB;}
	.st2{fill:#EA7737;}
	.st3{fill:#4985C4;}
	.st4{fill:#EE4B9A;}
</style>
<rect class="st0" width="1022.6" height="690.7"/>
<g>
	<path class="st1" d="M761.7,147.1c-5.9,0.8-11.7,1.9-17.4,3.4c-17.1-36.6-56.5-59.7-98.8-54.4c-22.4,2.9-42,13.3-56.6,28.3
		c-28.7-62-95-101.1-166.4-92c-78.5,10-136.5,75-140.4,151.4c-21.9-12.2-47.8-17.8-74.6-14.4c-66.7,8.5-113.9,69.5-105.4,136.2
		c8.5,66.7,69.5,113.9,136.2,105.4c7.8-1,15.3-2.7,22.5-5.1c13,44.3,56.6,73.9,103.9,67.9c25.4-3.2,47.2-16.2,62.2-34.7
		c33.8,43.2,88.8,68,147.2,60.6c59.5-7.6,107.2-46.7,128.5-98.4c26.8,17.7,59.8,26.3,94.1,21.9c76.3-9.7,130.2-79.4,120.5-155.7
		C907.6,191.4,838,137.4,761.7,147.1"/>
	<path class="st2" d="M89.6,656.3c-14.4,0-25.7-2.5-33.9-7.5c-7-4.1-10.4-8.9-10.4-14.3c0-2.8,1.1-5.1,3.2-6.9
		c2.2-1.8,5.1-2.7,8.9-2.7c5.1,0,8.8,2,11.2,6.1c3.2,5.4,10.5,8.1,21.9,8.1c9.7,0,19.1-1.7,28.2-5c9.4-3.4,14.2-7.1,14.2-11.2
		c0-5.5-2.9-9.2-8.8-11c-4.2-1.3-12.6-2-25.2-2.2c-9.8-0.2-18.5-1.6-26.3-4.3c-10.5-3.6-15.6-8.9-15.4-15.7
		c0.2-8.6,6-16.4,17.6-23.6c11.6-7.1,24.4-10.7,38.3-10.7c5.5,0,12.4,1,20.5,3c10.1,2.5,15.2,5.3,15.2,8.5c0,2.3-1,4.3-3.1,6.1
		c-2.3,2-5.2,3-8.7,3c-2.7,0-6.6-0.4-11.9-1.3c-5.3-0.9-9.3-1.3-12-1.3c-7.3,0-14.2,1.4-20.8,4.1c-6.8,2.7-10.2,5.7-10.2,8.9
		c0,1.7,1,3.1,3.1,4.1c2.1,1.1,5.2,1.8,9.3,2.3c7.2,0.3,14.4,0.6,21.6,0.9c12.5,0.8,22.5,3.5,29.8,8.3c8,5.3,12,12.6,12,21.9
		c0,11.4-8.3,20-24.9,25.8C120.4,654.1,105.9,656.3,89.6,656.3"/>
	<path class="st2" d="M195.1,623l-0.1,27.8c0,1.9-0.7,3.7-2.1,5.3c-2,2.2-4.9,3.4-8.6,3.4c-4.5,0-8-1.4-10.5-4.2c-2-2.2-3-4.6-3-7.1
		c0-9.8,0.4-24.4,1.2-44c0.8-19.6,1.2-34.3,1.2-44c0-2.5,1.1-4.6,3.4-6.3c2.3-1.8,5.1-2.6,8.5-2.6c3.4,0,6.2,0.9,8.4,2.6
		c2.2,1.8,3.3,3.9,3.3,6.3c0,4-0.3,9.3-0.8,16c-0.6,7.8-1,13.2-1.1,16c4-2.9,18.6-15.1,44-36.7c2.6-2.2,5.6-3.3,9-3.3
		c3.2,0,6,0.9,8.4,2.6c2.4,1.8,3.6,3.9,3.6,6.4c0,2.7-6.7,9.8-20.2,21.3c-10,8.4-20.4,16.7-31.5,24.9c6.2,4.5,12.4,9.1,18.6,13.6
		c7.2,5.2,13.7,9.5,19.5,12.8c2.9,1.6,6,2.9,9.3,3.7c6,1.5,9.1,4.4,9.1,8.6c0,1.9-0.8,3.7-2.3,5.5c-2.1,2.4-5,3.6-8.7,3.6
		c-8.1,0-18.6-4.1-31.4-12.3C218.5,640.4,209.4,633.8,195.1,623"/>
	<path class="st2" d="M370,570.8c-2.9,4.6-8.7,14.6-17.4,30c-7.2,12.8-13.4,22.9-18.5,30.2c-8.8,12.7-13.5,19.4-14.2,20.1
		c-3.3,3.8-7.2,5.7-11.5,5.7c-3.1,0-5.8-0.8-8.2-2.4c-2.6-1.8-3.9-3.9-3.9-6.5c0-2.2,5.9-11.2,17.7-27.2
		c-4.4-4.9-10.6-12.3-18.7-22.2c-6.1-7.3-15.1-18.3-26.9-33.1c-1.1-1.5-1.7-3.1-1.7-4.7c0-2.6,1.3-4.7,3.8-6.5
		c2.4-1.6,5.1-2.5,8.3-2.5c3.7,0,7.1,1.5,10.2,4.4l6.4,7.9c0.4,0.5,5.3,6.9,14.6,19.3c5.9,7.9,11.1,14.1,15.6,18.7
		c4.3-6.7,10.5-16.9,18.6-30.6c1.7-3,4.2-7.6,7.6-13.8c2.2-4,5.8-5.9,11-5.9c3.1,0,5.9,0.8,8.2,2.4c2.6,1.7,3.9,3.9,3.9,6.5
		C374.9,562.2,373.2,565.6,370,570.8"/>
	<path class="st2" d="M426.3,656.3c-14.4,0-25.7-2.5-33.9-7.5c-7-4.1-10.4-8.9-10.4-14.3c0-2.8,1.1-5.1,3.2-6.9
		c2.2-1.8,5.1-2.7,8.9-2.7c5.1,0,8.8,2,11.2,6.1c3.2,5.4,10.5,8.1,21.9,8.1c9.7,0,19.1-1.7,28.2-5c9.4-3.4,14.1-7.1,14.1-11.2
		c0-5.5-2.9-9.2-8.8-11c-4.2-1.3-12.6-2-25.2-2.2c-9.8-0.2-18.5-1.6-26.3-4.3c-10.5-3.6-15.6-8.9-15.4-15.7
		c0.2-8.6,6-16.4,17.6-23.6c11.6-7.1,24.4-10.7,38.3-10.7c5.5,0,12.4,1,20.5,3c10.1,2.5,15.2,5.3,15.2,8.5c0,2.3-1,4.3-3,6.1
		c-2.3,2-5.2,3-8.7,3c-2.7,0-6.6-0.4-11.9-1.3c-5.3-0.9-9.3-1.3-12-1.3c-7.3,0-14.2,1.4-20.8,4.1c-6.8,2.7-10.2,5.7-10.2,8.9
		c0,1.7,1,3.1,3.1,4.1c2.1,1.1,5.2,1.8,9.3,2.3c7.2,0.3,14.4,0.6,21.6,0.9c12.5,0.8,22.5,3.5,29.8,8.3c8,5.3,12,12.6,12,21.9
		c0,11.4-8.3,20-24.9,25.8C457.1,654.1,442.6,656.3,426.3,656.3"/>
	<path class="st2" d="M531.8,623l-0.1,27.8c0,1.9-0.7,3.7-2.1,5.3c-2,2.2-4.9,3.4-8.7,3.4c-4.5,0-8-1.4-10.5-4.2c-2-2.2-3-4.6-3-7.1
		c0-9.8,0.4-24.4,1.2-44c0.8-19.6,1.2-34.3,1.2-44c0-2.5,1.1-4.6,3.4-6.3c2.3-1.8,5.1-2.6,8.5-2.6c3.4,0,6.2,0.9,8.4,2.6
		c2.2,1.8,3.3,3.9,3.3,6.3c0,4-0.2,9.3-0.8,16c-0.6,7.8-1,13.2-1.1,16c4-2.9,18.6-15.1,44-36.7c2.6-2.2,5.6-3.3,9-3.3
		c3.2,0,6,0.9,8.4,2.6c2.4,1.8,3.6,3.9,3.6,6.4c0,2.7-6.7,9.8-20.2,21.3c-10,8.4-20.4,16.7-31.4,24.9c6.1,4.5,12.3,9.1,18.6,13.6
		c7.2,5.2,13.7,9.5,19.5,12.8c2.9,1.6,6,2.9,9.3,3.7c6,1.5,9.1,4.4,9.1,8.6c0,1.9-0.8,3.7-2.3,5.5c-2.1,2.4-5,3.6-8.7,3.6
		c-8.1,0-18.6-4.1-31.5-12.3C555.2,640.4,546.1,633.8,531.8,623"/>
	<path class="st3" d="M671,656.3c-16.7,0-31-3.7-42.7-11.2c-12.6-8-18.8-18.4-18.8-31.1c0-15,6-28.6,18.1-40.9
		c13.5-13.9,30.5-20.8,51-20.8c19.7,0,34.5,3.5,44.3,10.6c9.8,7,14.8,17.6,14.8,31.8c0,15-5.5,28.5-16.6,40.7
		C708.2,649.3,691.6,656.3,671,656.3 M678.5,570.2c-12.6,0-23.4,4.8-32.4,14.3c-8.4,8.9-12.6,18.8-12.6,29.6
		c0,7.3,3.6,13.2,10.9,17.8c7,4.4,15.9,6.6,26.5,6.6c12.4,0,22.8-4.8,31.1-14.3c7.6-8.7,11.4-18.5,11.4-29.6c0-9.2-2.7-15.7-8-19.3
		C700.5,571.9,691.5,570.2,678.5,570.2z"/>
	<path class="st4" d="M809.6,656.3c-16.7,0-31-3.7-42.7-11.2c-12.6-8-18.8-18.4-18.8-31.1c0-15,6-28.6,18.1-40.9
		c13.5-13.9,30.5-20.8,51-20.8c19.7,0,34.5,3.5,44.3,10.6c9.8,7,14.7,17.6,14.7,31.8c0,15-5.5,28.5-16.6,40.7
		C846.9,649.3,830.2,656.3,809.6,656.3 M817.2,570.2c-12.6,0-23.4,4.8-32.4,14.3c-8.4,8.9-12.6,18.8-12.6,29.6
		c0,7.3,3.7,13.2,10.9,17.8c7,4.4,15.8,6.6,26.5,6.6c12.4,0,22.8-4.8,31.1-14.3c7.6-8.7,11.5-18.5,11.5-29.6c0-9.2-2.7-15.7-8-19.3
		C839.1,571.9,830.1,570.2,817.2,570.2z"/>
	<path class="st2" d="M969.9,649.8c-6.7,2.3-17,4.3-30.9,6.1c-12.8,1.7-23.3,2.5-31.5,2.5c-13.8,0-20.8-4.7-20.8-14.2
		c0,0.7,0.6-6.2,1.7-20.9c1.5-19.1,2.2-40.4,2.2-63.8c0-2.5,1.1-4.6,3.3-6.4c2.2-1.8,5-2.6,8.4-2.6c3.4,0,6.2,0.9,8.5,2.6
		c2.3,1.8,3.4,3.9,3.4,6.4c0,23.5-0.8,45.1-2.3,64.8c-0.5,3.5-1,8.9-1.6,16.2c13.4-0.2,30.6-2.7,51.5-7.7c1.3-0.3,2.5-0.5,3.7-0.5
		c3.6,0,6.4,1,8.6,3c2,1.8,3,3.8,3,6.1C977.3,645.3,974.8,648.1,969.9,649.8"/>
	<path class="st4" d="M733.2,173.4l-98.8,117.3L509.9,155.1c0,0,86.5,81.6,123.6,81.6C670.6,236.6,733.2,173.4,733.2,173.4"/>
	<path class="st4" d="M658.8,182.6c3.6,13.5-4.4,27.5-18,31.1c-13.5,3.6-27.5-4.4-31.1-17.9c-3.6-13.5,4.4-27.5,18-31.1
		C641.2,161.1,655.1,169.1,658.8,182.6"/>
	<path class="st3" d="M284.8,173.4l98.8,117.3l124.5-135.6c0,0-90.9,81.6-123.6,81.6C351.7,236.6,284.8,173.4,284.8,173.4"/>
	<path class="st3" d="M359.3,182.6c-3.6,13.5,4.4,27.5,17.9,31.1c13.5,3.6,27.5-4.4,31.1-17.9c3.6-13.5-4.4-27.5-17.9-31.1
		C376.8,161.1,362.9,169.1,359.3,182.6"/>
	<rect x="472" y="304.5" class="st2" width="74" height="97.6"/>
	<polygon class="st4" points="634.2,298.1 608.8,298.1 608.8,402.2 	"/>
	<polygon class="st3" points="381.8,298.1 403.4,298.1 403.4,402.2 	"/>
</g>
</svg>
